<?xml version="1.0" encoding="UTF-8" standalone="no"?>
<svg
   xmlns:dc="http://purl.org/dc/elements/1.1/"
   xmlns:cc="http://creativecommons.org/ns#"
   xmlns:rdf="http://www.w3.org/1999/02/22-rdf-syntax-ns#"
   xmlns:svg="http://www.w3.org/2000/svg"
   xmlns="http://www.w3.org/2000/svg"
   xmlns:sodipodi="http://sodipodi.sourceforge.net/DTD/sodipodi-0.dtd"
   xmlns:inkscape="http://www.inkscape.org/namespaces/inkscape"
   width="210mm"
   height="148mm"
   viewBox="0 0 210 148"
   version="1.1"
   id="svg8"
   inkscape:version="1.0.2 (e86c870879, 2021-01-15)"
   sodipodi:docname="slweb-logo.svg">
  <title
     id="title986">slweb logo</title>
  <defs
     id="defs2" />
  <sodipodi:namedview
     id="base"
     pagecolor="#ffffff"
     bordercolor="#666666"
     borderopacity="1.0"
     inkscape:pageopacity="0.0"
     inkscape:pageshadow="2"
     inkscape:zoom="0.49497475"
     inkscape:cx="425.71429"
     inkscape:cy="309.80416"
     inkscape:document-units="mm"
     inkscape:current-layer="layer1"
     inkscape:document-rotation="0"
     showgrid="false"
     inkscape:window-width="1366"
     inkscape:window-height="526"
     inkscape:window-x="0"
     inkscape:window-y="16"
     inkscape:window-maximized="0">
    <sodipodi:guide
       position="0,148"
       orientation="0,793.70079"
       id="guide855" />
    <sodipodi:guide
       position="210,148"
       orientation="559.37008,0"
       id="guide857" />
    <sodipodi:guide
       position="210,0"
       orientation="0,-793.70079"
       id="guide859" />
    <sodipodi:guide
       position="0,0"
       orientation="-559.37008,0"
       id="guide861" />
  </sodipodi:namedview>
  <metadata
     id="metadata5">
    <rdf:RDF>
      <cc:Work
         rdf:about="">
        <dc:format>image/svg+xml</dc:format>
        <dc:type
           rdf:resource="http://purl.org/dc/dcmitype/StillImage" />
        <dc:title>slweb logo</dc:title>
        <cc:license
           rdf:resource="http://creativecommons.org/licenses/by/4.0/" />
        <dc:date>1.12.2020.</dc:date>
        <dc:creator>
          <cc:Agent>
            <dc:title>Страхиња Радић</dc:title>
          </cc:Agent>
        </dc:creator>
        <dc:rights>
          <cc:Agent>
            <dc:title>Copyright (c) 2020 Страхиња Радић (Strahinya Radich)</dc:title>
          </cc:Agent>
        </dc:rights>
      </cc:Work>
      <cc:License
         rdf:about="http://creativecommons.org/licenses/by/4.0/">
        <cc:permits
           rdf:resource="http://creativecommons.org/ns#Reproduction" />
        <cc:permits
           rdf:resource="http://creativecommons.org/ns#Distribution" />
        <cc:requires
           rdf:resource="http://creativecommons.org/ns#Notice" />
        <cc:requires
           rdf:resource="http://creativecommons.org/ns#Attribution" />
        <cc:permits
           rdf:resource="http://creativecommons.org/ns#DerivativeWorks" />
      </cc:License>
    </rdf:RDF>
  </metadata>
  <g
     inkscape:label="Слој 1"
     inkscape:groupmode="layer"
     id="layer1">
    <g
       id="g47">
      <path
         d="m 22.624187,97.543697 q -5.854094,0 -9.435422,-1.997279 -3.5813283,-1.997279 -3.5813283,-5.578607 0,-2.135023 1.0330753,-3.374713 1.101947,-1.308563 2.82374,-1.859536 1.721792,-0.619845 3.512456,-0.619845 0,2.410509 0.619845,4.545532 0.688717,2.135022 2.203895,3.443584 1.515177,1.308563 3.994558,1.308563 2.82374,0 4.683276,-1.308563 1.928407,-1.377434 1.928407,-3.856815 0,-2.410509 -1.859536,-3.787943 -1.859536,-1.377434 -5.922966,-3.305841 -3.994558,-1.928408 -6.405067,-4.407789 -2.41051,-2.548253 -2.41051,-6.542811 0,-5.096506 4.132302,-7.989117 4.201173,-2.961483 11.432702,-2.961483 4.683275,0 7.438143,0.964204 2.754868,0.895332 3.925686,2.341638 1.239691,1.446305 1.239691,3.168098 0,2.754868 -2.135023,3.994558 -2.135022,1.239691 -5.785222,1.239691 0,-1.859536 -0.550974,-3.6502 -0.482102,-1.790664 -1.65292,-2.961483 -1.101947,-1.239691 -3.099227,-1.239691 -2.685996,0 -4.270045,1.446306 -1.515177,1.377434 -1.515177,3.374713 0,2.272766 1.859536,3.581328 1.928407,1.308562 5.922966,3.099227 4.47666,1.997279 6.542811,4.545531 2.066151,2.548253 2.066151,6.405068 0,5.578608 -4.270046,8.815577 -4.201173,3.168098 -12.465777,3.168098 z"
         style="font-style:italic;font-variant:normal;font-weight:bold;font-stretch:normal;font-size:68.8717px;line-height:1.25;font-family:'Noto Serif';-inkscape-font-specification:'Noto Serif, Bold Italic';font-variant-ligatures:normal;font-variant-caps:normal;font-variant-numeric:normal;font-variant-east-asian:normal;letter-spacing:0px;fill:#687668;stroke-width:0.100886"
         id="path26" />
      <path
         d="m 55.475982,97.543697 q -3.925687,0 -6.060709,-1.859535 -2.135023,-1.928408 -2.135023,-5.234249 0,-1.446306 0.275487,-3.512457 0.275487,-2.066151 0.82646,-4.683275 l 5.991838,-28.237396 q 0.206615,-0.895332 0.344358,-1.790664 0.137744,-0.895332 0.137744,-1.170819 0,-1.859535 -0.826461,-2.341637 -0.82646,-0.550974 -2.823739,-0.550974 h -1.446306 l 0.619845,-3.6502 h 16.666951 l -8.195732,37.810562 q -0.41323,1.859535 -0.688717,3.512456 -0.275487,1.652921 -0.275487,3.099226 0,3.099227 2.41051,3.099227 1.101947,0 1.997279,-0.41323 0.895332,-0.413231 2.066151,-1.170819 l 1.65292,2.341637 q -1.65292,1.721793 -4.201173,3.23697 -2.548253,1.515177 -6.336196,1.515177 z"
         style="font-style:italic;font-variant:normal;font-weight:bold;font-stretch:normal;font-size:68.8717px;line-height:1.25;font-family:'Noto Serif';-inkscape-font-specification:'Noto Serif, Bold Italic';font-variant-ligatures:normal;font-variant-caps:normal;font-variant-numeric:normal;font-variant-east-asian:normal;letter-spacing:0px;fill:#687668;stroke-width:0.100886"
         id="path28" />
      <path
         d="m 100.44907,97.543697 q 0,-3.168098 -0.0689,-7.093784 0,-3.925687 -0.13774,-7.851374 -0.0689,-3.925686 -0.20662,-7.3004 -0.06887,-3.443584 -0.206611,-5.578607 -2.685996,6.336196 -6.198453,13.292237 -3.443585,6.88717 -7.989117,13.636596 L 76.619467,97.268211 75.93075,68.617585 q -0.06887,-3.168098 -1.446305,-4.06343 -1.308563,-0.964204 -3.305842,-0.964204 h -0.41323 l 1.101947,-3.6502 h 13.292238 q 0.275486,4.683276 0.41323,9.159936 0.206615,4.407788 0.275486,9.091064 0.137744,4.614403 0.137744,10.055267 h 0.482102 q 3.443585,-5.440864 6.818298,-12.741263 3.443585,-7.369272 6.405067,-14.945159 l 8.402345,-0.275486 q 0.20662,2.066151 0.41323,5.165377 0.27549,3.099226 0.4821,6.680554 0.20662,3.512457 0.34436,6.956042 0.13775,3.374713 0.20662,6.129581 0.13774,2.685996 0.13774,4.06343 h 0.4821 q 4.06343,-4.958762 6.26733,-8.677834 2.20389,-3.787943 3.09922,-6.611683 0.89534,-2.892611 0.89534,-5.165377 0,-2.066151 -1.10195,-3.23697 -1.03308,-1.170819 -2.34164,-1.446305 0.20662,-2.617125 1.65292,-3.719072 1.51518,-1.170819 3.44359,-1.170819 2.27276,0 3.51245,1.515178 1.30857,1.515177 1.30857,4.338916 0,3.581329 -1.51518,7.575887 -1.51518,3.925687 -4.06343,8.057988 -2.54825,4.132302 -5.78522,8.195732 -3.23697,4.06343 -6.68056,7.851374 z"
         style="font-style:italic;font-variant:normal;font-weight:bold;font-stretch:normal;font-size:68.8717px;line-height:1.25;font-family:'Noto Serif';-inkscape-font-specification:'Noto Serif, Bold Italic';font-variant-ligatures:normal;font-variant-caps:normal;font-variant-numeric:normal;font-variant-east-asian:normal;letter-spacing:0px;fill:#687668;stroke-width:0.100886"
         id="path30" />
      <path
         d="m 146.59298,97.543697 q -4.20117,0 -7.71363,-1.515177 -3.44358,-1.584049 -5.57861,-4.752147 -2.06615,-3.168098 -2.06615,-7.989117 0,-3.856815 1.51518,-8.057988 1.51518,-4.201174 4.47666,-7.782502 2.96148,-3.6502 7.3004,-5.922966 4.33892,-2.272766 10.05527,-2.272766 4.88989,0 7.64476,2.135023 2.75486,2.135022 2.75486,5.991837 0,3.719072 -2.68599,6.88717 -2.61713,3.168098 -7.3004,5.165377 -4.61441,1.928408 -10.53737,1.928408 h -2.54826 q -0.0689,0.688717 -0.13774,1.377434 0,0.688717 0,1.23969 0,3.994559 1.85954,6.198453 1.85953,2.135023 5.64748,2.135023 3.37471,0 5.99183,-1.721793 2.61713,-1.790664 4.06343,-3.856815 0.89534,1.101947 0.89534,2.961483 0,1.652921 -1.44631,3.512457 -1.44631,1.790664 -4.47666,3.099226 -2.96148,1.23969 -7.71363,1.23969 z m -3.58133,-20.110535 q 3.44359,0 6.12958,-1.170819 2.75487,-1.23969 4.33892,-3.374713 1.58405,-2.135022 1.58405,-5.027634 0,-2.135022 -0.89533,-3.305841 -0.89534,-1.170819 -2.47938,-1.170819 -2.2039,0 -4.13231,2.135023 -1.9284,2.135022 -3.30584,5.371992 -1.30856,3.23697 -1.85953,6.542811 z"
         style="font-style:italic;font-variant:normal;font-weight:bold;font-stretch:normal;font-size:68.8717px;line-height:1.25;font-family:'Noto Serif';-inkscape-font-specification:'Noto Serif, Bold Italic';font-variant-ligatures:normal;font-variant-caps:normal;font-variant-numeric:normal;font-variant-east-asian:normal;letter-spacing:0px;fill:#687668;stroke-width:0.100886"
         id="path32" />
      <path
         d="m 183.30158,97.543697 q -2.82374,0 -5.16538,-0.757588 -2.27276,-0.757589 -3.58132,-1.721793 l -3.92569,1.99728 h -3.85682 l 9.15994,-43.044811 q 0.20661,-0.895332 0.34436,-1.790664 0.13774,-0.895332 0.13774,-1.170819 0,-1.859535 -0.82646,-2.341637 -0.82646,-0.550974 -2.82374,-0.550974 h -1.58405 l 0.68872,-3.6502 h 16.66695 l -2.75487,13.085622 q -0.20661,0.964204 -0.75759,2.617125 -0.4821,1.652921 -1.10194,3.443585 -0.61985,1.790664 -1.17082,3.305841 -0.4821,1.515178 -0.75759,2.272766 h 0.34436 q 2.47938,-5.027634 5.50973,-7.507015 3.03036,-2.479381 7.57589,-2.479381 4.40779,0 7.23153,3.168098 2.82374,3.168098 2.82374,9.297679 0,4.201174 -1.51518,8.746706 -1.51518,4.47666 -4.40779,8.402347 -2.82374,3.856815 -6.95604,6.267324 -4.06343,2.410509 -9.29768,2.410509 z m -0.34436,-4.407788 q 2.41051,0 4.33892,-1.446306 1.92841,-1.515177 3.37471,-3.856815 1.44631,-2.410509 2.41051,-5.165377 0.96421,-2.82374 1.44631,-5.578607 0.4821,-2.754868 0.4821,-4.889891 0,-4.06343 -1.10195,-5.716351 -1.03307,-1.721792 -2.54825,-1.721792 -1.92841,0 -3.6502,1.584049 -1.65292,1.584049 -3.03036,3.856815 -1.30856,2.272766 -2.20389,4.47666 -0.89533,2.203894 -1.17082,3.512457 l -2.82374,13.01675 q 0.75759,0.826461 1.85954,1.377434 1.17082,0.550974 2.61712,0.550974 z"
         style="font-style:italic;font-variant:normal;font-weight:bold;font-stretch:normal;font-size:68.8717px;line-height:1.25;font-family:'Noto Serif';-inkscape-font-specification:'Noto Serif, Bold Italic';font-variant-ligatures:normal;font-variant-caps:normal;font-variant-numeric:normal;font-variant-east-asian:normal;letter-spacing:0px;fill:#687668;stroke-width:0.100886"
         id="path34" />
    </g>
  </g>
</svg>
